<?xml version="1.0" encoding="UTF-8"?>
<svg width="180px" height="32px" viewBox="0 0 180 32" version="1.1" xmlns="http://www.w3.org/2000/svg" xmlns:xlink="http://www.w3.org/1999/xlink">
    <!-- Generator: Sketch 44.1 (41455) - http://www.bohemiancoding.com/sketch -->
    <title>logo-brickstarter</title>
    <desc>Created with Sketch.</desc>
    <defs></defs>
    <g id="Symbols" stroke="none" stroke-width="1" fill="none" fill-rule="evenodd">
        <g id="UI-/-Menú-Superior-Base" transform="translate(-204.000000, -16.000000)">
            <g id="logo-brickstarter" transform="translate(204.000000, 16.000000)">
                <path d="M43.8672603,23.8639048 L46.4678082,23.8639048 C48.8132877,23.8639048 50.2957534,23.1686667 50.2957534,21.2810476 C50.2957534,19.5677143 49.109589,18.6048571 47.1150685,18.6048571 L43.8672603,18.6048571 L43.8672603,23.8639048 Z M43.8672603,15.9810476 L46.1849315,15.9810476 C48.4220548,15.9810476 49.5142466,15.1372381 49.5142466,13.5981905 C49.5142466,12.0724762 48.4354795,11.2829524 46.8993151,11.2829524 L43.8672603,11.2829524 L43.8672603,15.9810476 Z M40,8.44580952 L47.8294521,8.44580952 C51.1041096,8.44580952 53.3412329,10.0915238 53.3412329,12.929619 C53.3412329,15.2715238 51.8721918,16.5429524 50.1471233,16.9315238 L50.1471233,17.1048571 C52.3573973,17.3058095 54.2569863,18.8181905 54.2569863,21.5477143 C54.2569863,24.9086667 51.4406849,26.714381 47.8563014,26.714381 L40,26.714381 L40,8.44580952 Z" id="Fill-1" fill="#FFFFFF"></path>
                <path d="M56.0225205,12.4744762 L59.8226575,12.4744762 L59.8226575,14.4811429 L59.9847123,14.4811429 C60.2944384,13.5582857 61.3588219,12.2735238 63.2996438,12.2735238 C63.8251233,12.2735238 64.2029315,12.3135238 64.4723836,12.3801905 L64.4723836,15.6192381 C64.1895068,15.5259048 63.5959452,15.471619 63.0167671,15.471619 C60.7259452,15.471619 59.917589,16.824 59.917589,18.7373333 L59.917589,26.7144762 L56.0225205,26.7144762 L56.0225205,12.4744762 Z" id="Fill-3" fill="#FFFFFF"></path>
                <path d="M66.1867123,26.7140952 L69.9734247,26.7140952 L69.9734247,12.4740952 L66.1867123,12.4740952 L66.1867123,26.7140952 Z M68.0738356,6.99980952 C69.2331507,6.99980952 70.1891781,7.77695238 70.1891781,8.92742857 C70.1891781,10.0912381 69.2331507,10.868381 68.0738356,10.868381 C66.9145205,10.868381 65.9719178,10.0912381 65.9719178,8.92742857 C65.9719178,7.77695238 66.9145205,6.99980952 68.0738356,6.99980952 L68.0738356,6.99980952 Z" id="Fill-5" fill="#FFFFFF"></path>
                <path d="M72.0940411,18.9522857 C72.0940411,14.990381 74.5066438,12.2199048 78.5628082,12.2199048 C82.2411644,12.2199048 84.4782877,14.5218095 84.5588356,17.3589524 L81.0828082,17.3589524 C80.9073288,16.1941905 80.0040411,15.1913333 78.7239041,15.1913333 C76.9719863,15.1913333 75.9076027,16.650381 75.9076027,18.9922857 L75.9076027,20.0627619 C75.9076027,22.5122857 76.9988356,23.998 78.7373288,23.998 C80.2869178,23.998 80.9878767,23.0475238 81.1365068,21.9637143 L84.6134932,21.9637143 C84.3430822,25.2818095 81.9582877,26.9694286 78.5484247,26.9694286 C74.5603425,26.9694286 72.0940411,24.305619 72.0940411,20.0894286 L72.0940411,18.9522857 Z" id="Fill-7" fill="#FFFFFF"></path>
                <polygon id="Fill-8" fill="#FFFFFF" points="90.2069726 26.7145714 86.4202603 26.7145714 86.4202603 7.48219048 90.2069726 7.48219048 90.2069726 18.2421905 90.3824521 18.2421905 94.8557397 12.4745714 99.2216301 12.4745714 94.0742329 18.6174286 99.572589 26.7145714 95.1117671 26.7145714 91.1639589 20.758381 90.2069726 21.8831429"></polygon>
                <path d="M105.48989,12.219619 C108.899753,12.219619 111.041945,13.879619 111.041945,16.5834286 L107.700164,16.5834286 C107.606192,15.7272381 107.039479,14.7891429 105.409342,14.7891429 C104.088932,14.7891429 103.252767,15.4186667 103.252767,16.3824762 C103.252767,17.7605714 105.354685,17.9748571 106.985781,18.2700952 C109.626603,18.7377143 111.486877,19.6748571 111.486877,22.272 C111.486877,25.2158095 109.18263,26.9691429 105.300986,26.9691429 C101.514274,26.9691429 99.3586575,25.2158095 99.3586575,22.6862857 L103.037014,22.6862857 C103.172219,23.6900952 104.061123,24.3853333 105.503315,24.3853333 C107.079753,24.3853333 107.820986,23.6234286 107.820986,22.7539048 C107.820986,21.4281905 106.069068,21.2539048 104.276877,20.892 C101.716603,20.3577143 99.6549589,19.3805714 99.6549589,16.7300952 C99.6549589,13.5453333 102.417562,12.219619 105.48989,12.219619" id="Fill-9" fill="#FFFFFF"></path>
                <path d="M114.345274,9.11504762 L118.024589,9.11504762 L118.024589,12.4740952 L120.787192,12.4740952 L120.787192,15.3779048 L118.024589,15.3779048 L118.024589,22.123619 C118.024589,23.4893333 118.630616,23.9179048 120.059384,23.9179048 C120.36911,23.9179048 120.678836,23.9179048 120.84089,23.8912381 L120.84089,26.6617143 C120.558014,26.7140952 119.897329,26.7817143 119.142671,26.7817143 C115.544863,26.7817143 114.264726,25.603619 114.264726,22.6721905 L114.264726,15.3779048 L112.216507,15.3779048 L112.216507,12.4740952 L114.345274,12.4740952 L114.345274,9.11504762 Z" id="Fill-10" fill="#FFFFFF"></path>
                <path d="M130.560055,22.0568571 L130.560055,20.5844762 L128.013205,20.5844762 C126.517315,20.5844762 125.762658,21.294 125.762658,22.3387619 C125.762658,23.6101905 126.840466,24.2254286 127.972932,24.2254286 C129.401699,24.2254286 130.560055,23.3549524 130.560055,22.0568571 M126.719644,26.9292381 C123.930192,26.9292381 122.002795,25.2959048 122.002795,22.6054286 C122.002795,20.0359048 123.794986,18.4035238 127.109918,18.4035238 L130.560055,18.4035238 L130.560055,17.1454286 C130.560055,15.8073333 129.738274,15.0568571 128.336356,15.0568571 C126.948822,15.0568571 126.140466,15.8073333 126.072384,16.8911429 L122.528274,16.8911429 C122.623205,14.521619 124.131562,12.2597143 128.403479,12.2597143 C131.732795,12.2597143 134.293068,13.7587619 134.293068,17.1454286 L134.293068,26.7149524 L130.72211,26.7149524 L130.72211,24.9882857 L130.560055,24.9882857 C130.021151,26.0187619 128.834986,26.9292381 126.719644,26.9292381" id="Fill-11" fill="#FFFFFF"></path>
                <path d="M136.733,12.4744762 L140.533137,12.4744762 L140.533137,14.4811429 L140.695192,14.4811429 C141.004918,13.5582857 142.069301,12.2735238 144.010123,12.2735238 C144.535603,12.2735238 144.913411,12.3135238 145.182863,12.3801905 L145.182863,15.6192381 C144.899986,15.5259048 144.306425,15.471619 143.727247,15.471619 C141.436425,15.471619 140.628068,16.824 140.628068,18.7373333 L140.628068,26.7144762 L136.733,26.7144762 L136.733,12.4744762 Z" id="Fill-12" fill="#FFFFFF"></path>
                <path d="M148.325479,9.11504762 L152.004795,9.11504762 L152.004795,12.4740952 L154.767397,12.4740952 L154.767397,15.3779048 L152.004795,15.3779048 L152.004795,22.123619 C152.004795,23.4893333 152.610822,23.9179048 154.039589,23.9179048 C154.349315,23.9179048 154.659041,23.9179048 154.821096,23.8912381 L154.821096,26.6617143 C154.538219,26.7140952 153.877534,26.7817143 153.122877,26.7817143 C149.525068,26.7817143 148.244932,25.603619 148.244932,22.6721905 L148.244932,15.3779048 L146.196712,15.3779048 L146.196712,12.4740952 L148.325479,12.4740952 L148.325479,9.11504762 Z" id="Fill-13" fill="#FFFFFF"></path>
                <path d="M165.30863,18.0818095 L165.30863,18.0560952 C165.30863,16.3018095 164.229863,14.9770476 162.586301,14.9770476 C160.929315,14.9770476 159.837123,16.3160952 159.837123,18.0560952 L159.837123,18.0818095 L165.30863,18.0818095 Z M156.118493,20.1427619 L156.118493,18.898 C156.118493,14.6427619 158.786164,12.2199048 162.559452,12.2199048 C166.493836,12.2199048 168.960137,14.8560952 168.960137,18.978 L168.960137,20.3837143 L159.837123,20.3837143 L159.837123,20.8122857 C159.837123,22.8465714 161.036712,24.1322857 162.733973,24.1322857 C164.109041,24.1322857 165.092877,23.4618095 165.348904,22.3389524 L168.839315,22.3389524 C168.543014,24.6008571 166.68274,26.9694286 162.708082,26.9694286 C158.759315,26.9694286 156.118493,24.5599048 156.118493,20.1427619 L156.118493,20.1427619 Z" id="Fill-14" fill="#FFFFFF"></path>
                <path d="M170.915438,12.4744762 L174.715575,12.4744762 L174.715575,14.4811429 L174.87763,14.4811429 C175.187356,13.5582857 176.25174,12.2735238 178.192562,12.2735238 C178.718041,12.2735238 179.095849,12.3135238 179.365301,12.3801905 L179.365301,15.6192381 C179.082425,15.5259048 178.488863,15.471619 177.909685,15.471619 C175.618863,15.471619 174.810507,16.824 174.810507,18.7373333 L174.810507,26.7144762 L170.915438,26.7144762 L170.915438,12.4744762 Z" id="Fill-15" fill="#FFFFFF"></path>
                <path d="M30.6307765,20.9539765 L16.4387765,31.3633882 C15.9418353,31.7276235 15.2660706,31.7276235 14.7681882,31.3633882 L0.577129412,20.9539765 C-0.192752941,20.3892706 -0.192752941,19.2410353 0.577129412,18.6763294 L14.7681882,8.26785882 C15.2660706,7.90268235 15.9418353,7.90268235 16.4387765,8.26785882 L30.6307765,18.6763294 C31.3997176,19.2410353 31.3997176,20.3892706 30.6307765,20.9539765" id="Fill-1" fill="#7B3EEC"></path>
                <path d="M30.6307765,12.9595294 L16.4387765,23.3689412 C15.9418353,23.7331765 15.2660706,23.7331765 14.7681882,23.3689412 L0.577129412,12.9595294 C-0.192752941,12.3948235 -0.192752941,11.2475294 0.577129412,10.6828235 L14.7681882,0.273411765 C15.2660706,-0.0908235294 15.9418353,-0.0908235294 16.4387765,0.273411765 L30.6307765,10.6828235 C31.3997176,11.2475294 31.3997176,12.3948235 30.6307765,12.9595294" id="Fill-4" fill="#FFFFFF"></path>
            </g>
        </g>
    </g>
</svg>