<svg xmlns="http://www.w3.org/2000/svg" width="232" height="21" viewBox="0 0 232 21"><g><g><g><g><path fill="#ffffff" d="M0 4.654h6.03V20.46h4.711V4.654h6.03V.621H0z"/></g><g><path fill="#ffffff" d="M18.341 20.46V.621h4.713v19.84z"/></g><g><path fill="#ffffff" d="M29.338.621h-4.712v19.84h14.163v-4.034h-9.451z"/></g><g><path fill="#ffffff" d="M45.072 12.123h7.88V8.361h-7.88V4.654h9.452V.621H40.36v19.84h14.162v-4.034h-9.45z"/></g><g><path fill="#ffffff" d="M74.578 12.117V.607h3.613v11.51z"/></g><g><path fill="#ffffff" d="M86.982 6.37L83.109.607h-3.347v11.51h3.455V6.37l3.857 5.747h3.363V.607h-3.455z"/></g><g><path fill="#ffffff" d="M104.366 13.534L99.969.607h-6.387v19.839h4.441V7.782l4.423 12.664h3.605l4.424-12.79v12.79h4.44V.606h-6.39z"/></g><g><path fill="#ffffff" d="M116.486 20.446V.606h4.712v19.84z"/></g><g><path fill="#ffffff" d="M135.153 13.143l-7.8-12.536h-4.585v19.839h4.441V7.938l7.771 12.508h4.613V.606h-4.44z"/></g><g><path fill="#ffffff" d="M154.064 10.825c0 1.037-.133 1.925-.394 2.638-.26.71-.608 1.29-1.036 1.727a3.73 3.73 0 0 1-1.46.936 5.267 5.267 0 0 1-1.72.286h-3.578V4.64h2.817c1.016 0 1.878.145 2.562.43.676.283 1.225.694 1.634 1.221.412.534.714 1.186.896 1.939.185.765.279 1.638.279 2.595zm4.033-4.695c-.453-1.22-1.092-2.251-1.898-3.067a7.836 7.836 0 0 0-2.879-1.845c-1.098-.406-2.298-.611-3.567-.611h-8.59v19.839h8.59c1.51 0 2.843-.258 3.963-.767a7.957 7.957 0 0 0 2.821-2.11c.75-.889 1.317-1.957 1.686-3.176.367-1.21.553-2.548.553-3.975 0-1.631-.228-3.073-.679-4.288z"/></g><g><g><path fill="#ffffff" d="M71.353 11.68a6.044 6.044 0 0 0-1.707-1.734 7.467 7.467 0 0 0-1.973-.937 18.392 18.392 0 0 0-1.517-.396c-1.212-.308-2.193-.561-2.944-.76-.735-.195-1.316-.391-1.728-.584-.383-.18-.638-.37-.76-.566-.121-.198-.183-.47-.183-.806 0-.37.078-.675.234-.908.163-.244.374-.452.627-.615.258-.166.548-.283.862-.35.837-.175 1.687-.115 2.394.028.415.085.787.23 1.106.431.31.196.563.47.752.815.19.35.305.802.34 1.346l.013.21h4.562V6.63c0-1.155-.223-2.155-.665-2.972a5.82 5.82 0 0 0-1.794-2.019 7.552 7.552 0 0 0-2.56-1.134C64.652.08 62.688.002 60.774.52a7.53 7.53 0 0 0-2.407 1.12 6.014 6.014 0 0 0-1.734 1.904c-.443.764-.669 1.675-.669 2.706 0 .921.179 1.72.53 2.373.348.65.812 1.2 1.378 1.634a7.514 7.514 0 0 0 1.903 1.05c.695.265 1.416.492 2.137.671.695.197 1.402.38 2.1.546.673.16 1.284.348 1.816.56.513.206.932.464 1.244.767.292.286.435.65.435 1.116 0 .435-.111.795-.331 1.069-.232.289-.526.52-.872.684a4.06 4.06 0 0 1-1.158.348c-1.028.15-1.916.115-2.764-.104a3.847 3.847 0 0 1-1.296-.59 2.857 2.857 0 0 1-.869-1.02v-.001a2.994 2.994 0 0 1-.294-1.022h-4.597c.046 1.007.266 1.905.664 2.668a6.35 6.35 0 0 0 1.9 2.224 8.078 8.078 0 0 0 2.737 1.27 12.53 12.53 0 0 0 3.166.401c1.338 0 2.534-.158 3.555-.47 1.03-.316 1.905-.763 2.602-1.331a5.618 5.618 0 0 0 1.597-2.05c.356-.788.536-1.651.536-2.565 0-1.125-.246-2.067-.73-2.798z"/></g></g></g><g><g><path fill="#ffffff" d="M168.174 16.881h6.3v-.985h-6.3V13.43h6.465v-1.02H167v8.284h7.944v-1.021h-6.77z"/></g><g><path fill="#ffffff" d="M184.776 12.41h-1.607l-2.898 3.133-2.864-3.133h-1.619l3.72 3.896-4.236 4.389h1.607l3.38-3.626 3.403 3.626h1.654l-4.33-4.4z"/></g><g><path fill="#ffffff" d="M193.095 15.814c-.446.55-1.15.575-1.795.575h-3.825v-2.993h3.696c.669 0 1.467 0 1.935.587a1.4 1.4 0 0 1 .294.892c0 .493-.177.786-.305.939zm-1.103-3.38c-.211-.011-.422-.023-.633-.023h-5.07v8.284h1.197v-3.321h3.977c.858 0 1.632-.011 2.348-.563.81-.61.869-1.537.869-1.866 0-.504-.141-1.01-.423-1.42-.704-1.01-1.901-1.056-2.265-1.091z"/></g><g><path fill="#ffffff" d="M197.013 16.881h6.302v-.985h-6.302V13.43h6.466v-1.02h-7.639v8.284h7.944v-1.021h-6.77z"/></g><g><path fill="#ffffff" d="M206.294 16.4v-3.004h4.553c.646 0 1.197.059 1.549.68.2.34.21.658.21.81 0 .482-.186.763-.304.904-.457.587-1.244.61-1.912.61zm6.195.564c1.245-.517 1.339-1.678 1.339-2.124 0-1.138-.634-2.007-1.75-2.3-.352-.094-.61-.13-1.313-.13h-5.644v8.285h1.185v-3.321h4l2.806 3.32h1.537l-3.062-3.507c.469-.071.692-.141.902-.223z"/></g><g><path fill="#ffffff" d="M214.812 13.396h3.38v7.299h1.173v-7.299h3.391v-.986h-7.944z"/></g><g><path fill="#ffffff" d="M231.11 16.893c-.398-.493-.985-.821-2.264-.974-.915-.105-1.831-.152-2.746-.27-.481-.058-1.068-.105-1.361-.575a1.002 1.002 0 0 1-.141-.516c0-.352.2-.845.915-1.115.306-.117.963-.27 1.807-.27 1.303 0 2.089.376 2.547.693.234.164.446.375.504.434l1.08-.434c-.071-.082-.27-.376-.54-.6a3.23 3.23 0 0 0-.375-.28c-.6-.387-1.584-.786-3.227-.786-1.338 0-2.241.269-2.734.539-.352.188-1.15.716-1.15 1.878 0 .28.023.868.586 1.385.61.563 1.385.645 2.969.774.657.059 2.089.14 2.699.41.434.188.704.54.704 1.022 0 .223-.07.739-.563 1.114-.798.599-2.042.564-2.253.564-.27 0-1.397-.012-2.347-.4-.575-.234-.962-.54-1.138-.715-.071-.071-.118-.13-.176-.2l-1.091.446c.129.188.328.493.774.833.14.106.434.317.868.505.41.176.704.246.892.293.88.223 1.9.247 2.136.247a9.92 9.92 0 0 0 1.197-.082c.305-.036 1.7-.2 2.44-1.233.165-.223.423-.68.423-1.384 0-.247-.024-.775-.434-1.303z"/></g></g></g></g></svg>