<svg xmlns="http://www.w3.org/2000/svg" viewBox="0 0 338 33.83"><path style="fill:#52b584" d="M25.27,25.91H19.86L18,21.44H7.13L5.41,25.91H0L10,.54h5Zm-9.19-9.29L12.54,7.67,9,16.62Zm16.18-6A7.57,7.57,0,0,1,38,8.21a7.82,7.82,0,0,1,6,2.61,9.18,9.18,0,0,1,2.31,6.44,9.39,9.39,0,0,1-2.41,6.59,8,8,0,0,1-6.2,2.66,6.92,6.92,0,0,1-5.16-2.21v9.54H27.63V8.7h4.67v1.87Zm4.57,11.56a4.13,4.13,0,0,0,3.25-1.38,4.92,4.92,0,0,0,1.28-3.49,4.89,4.89,0,0,0-1.23-3.39,4.13,4.13,0,0,0-3.25-1.38,4.27,4.27,0,0,0-3.15,1.33,4.78,4.78,0,0,0-1.33,3.54,4.84,4.84,0,0,0,1.28,3.39A4.49,4.49,0,0,0,36.83,22.13Zm30.29,3.79H62.45V24a7.33,7.33,0,0,1-5.65,2.41,7.78,7.78,0,0,1-6-2.56,9.29,9.29,0,0,1-2.36-6.54,9.35,9.35,0,0,1,2.46-6.59A8.13,8.13,0,0,1,57,8.16a7.65,7.65,0,0,1,2.9.59,6.48,6.48,0,0,1,2.51,1.77V8.7h4.67Zm-9.29-3.79a4.09,4.09,0,0,0,3.1-1.33,4.76,4.76,0,0,0,1.28-3.54,4.84,4.84,0,0,0-1.28-3.39,4.09,4.09,0,0,0-3.1-1.33,4.26,4.26,0,0,0-3.25,1.33,4.71,4.71,0,0,0-1.28,3.49,4.73,4.73,0,0,0,1.23,3.39A4.41,4.41,0,0,0,57.82,22.13Zm31.13,3.79H84.28V24.09a8.08,8.08,0,0,1-11.65-.25,9.21,9.21,0,0,1-2.36-6.44,9.39,9.39,0,0,1,2.41-6.59,7.9,7.9,0,0,1,6.1-2.66,7.4,7.4,0,0,1,5.31,2.21V0h4.87Zm-9.29-3.79A4.27,4.27,0,0,0,82.8,20.8a4.78,4.78,0,0,0,1.33-3.54,5,5,0,0,0-1.28-3.44,4.45,4.45,0,0,0-6.39,0,4.92,4.92,0,0,0-1.28,3.49,4.69,4.69,0,0,0,1.23,3.34A4,4,0,0,0,79.66,22.13Zm25-13.77-.54,4.77a9.69,9.69,0,0,0-1.67-.25,5.35,5.35,0,0,0-4.47,2.7V25.91H93.08V8.7h4.67v2.66h.39c1.28-2.11,2.9-3.15,4.92-3.15A5.52,5.52,0,0,1,104.64,8.36Zm5-8.36a2.82,2.82,0,0,1,2,.79,2.67,2.67,0,0,1,.84,2,2.67,2.67,0,0,1-.84,2,2.74,2.74,0,0,1-2,.79,2.87,2.87,0,0,1-2-.84,2.67,2.67,0,0,1-.84-2,2.67,2.67,0,0,1,.84-2A2.91,2.91,0,0,1,109.65,0Zm2.41,25.91h-4.87V8.7h4.87Zm20.36,0h-4.87V15.69c0-1.33-.2-2.21-.64-2.61a2.61,2.61,0,0,0-1.82-.59c-1.28,0-2.56.74-3.88,2.21V25.91h-4.87V8.7H121v2.07a10.73,10.73,0,0,1,2.9-2,6.73,6.73,0,0,1,2.85-.59A5.2,5.2,0,0,1,131,9.88a6.68,6.68,0,0,1,1.48,4.52V25.91Zm21.68,0h-4.67V24a7.33,7.33,0,0,1-5.65,2.41,7.78,7.78,0,0,1-6-2.56,9.29,9.29,0,0,1-2.36-6.54,9.35,9.35,0,0,1,2.46-6.59A8.13,8.13,0,0,1,144,8.16a7.65,7.65,0,0,1,2.9.59,6.48,6.48,0,0,1,2.51,1.77V8.7h4.67Zm-9.29-3.79a4.09,4.09,0,0,0,3.1-1.33,4.76,4.76,0,0,0,1.28-3.54,4.84,4.84,0,0,0-1.28-3.39,4.09,4.09,0,0,0-3.1-1.33,4.26,4.26,0,0,0-3.25,1.33,4.71,4.71,0,0,0-1.28,3.49,4.73,4.73,0,0,0,1.23,3.39A4.33,4.33,0,0,0,144.81,22.13ZM173.87,19a7.19,7.19,0,0,1-2.11,5.51,9.36,9.36,0,0,1-11.6,0A7.08,7.08,0,0,1,158,19V8.7H163v9.88c0,2.31,1,3.49,3,3.49s3-1.18,3-3.49V8.7h4.87V19ZM194,25.91h-4.87V15.69c0-1.33-.2-2.21-.64-2.61a2.61,2.61,0,0,0-1.82-.59c-1.28,0-2.56.74-3.88,2.21V25.91h-4.92V8.7h4.67v2.07a10.73,10.73,0,0,1,2.9-2,6.73,6.73,0,0,1,2.85-.59,5.2,5.2,0,0,1,4.23,1.72A6.68,6.68,0,0,1,194,14.41ZM206.27,8.16A9,9,0,0,1,213,10.77a8.86,8.86,0,0,1,2.61,6.54A8.93,8.93,0,0,1,213,23.85a9.12,9.12,0,0,1-6.69,2.61,9.23,9.23,0,0,1-6.74-2.61,8.93,8.93,0,0,1-2.61-6.54,9,9,0,0,1,2.61-6.54A9.23,9.23,0,0,1,206.27,8.16Zm0,13.82a4.39,4.39,0,0,0,3.1-1.28,4.44,4.44,0,0,0,1.33-3.39,4.34,4.34,0,0,0-1.38-3.44,4.58,4.58,0,0,0-3-1.18,4.39,4.39,0,0,0-3.1,1.28,4.44,4.44,0,0,0-1.33,3.39,4.44,4.44,0,0,0,1.33,3.39A4.66,4.66,0,0,0,206.27,22Zm17.36,3.93h-4.87V0h4.87ZM230.32,0a2.82,2.82,0,0,1,2,.79,2.67,2.67,0,0,1,.84,2,2.67,2.67,0,0,1-.84,2,2.74,2.74,0,0,1-2,.79,2.87,2.87,0,0,1-2-.84,2.5,2.5,0,0,1-.84-2,2.67,2.67,0,0,1,.84-2A2.7,2.7,0,0,1,230.32,0Zm2.41,25.91h-4.87V8.7h4.87ZM254,8.7l-7.23,17.21h-4.47L235.09,8.7h5.16l4.38,11.65L249.05,8.7Zm9.78-.54a9,9,0,0,1,6.69,2.61A8.86,8.86,0,0,1,273,17.31a8.93,8.93,0,0,1-2.61,6.54,9.12,9.12,0,0,1-6.69,2.61A9.23,9.23,0,0,1,257,23.85a8.93,8.93,0,0,1-2.61-6.54A9,9,0,0,1,257,10.77,9.31,9.31,0,0,1,263.75,8.16Zm0,13.82a4.39,4.39,0,0,0,3.1-1.28,4.44,4.44,0,0,0,1.33-3.39,4.34,4.34,0,0,0-1.38-3.44,4.58,4.58,0,0,0-3-1.18,4.39,4.39,0,0,0-3.1,1.28,4.44,4.44,0,0,0-1.33,3.39,4.44,4.44,0,0,0,1.33,3.39A4.75,4.75,0,0,0,263.75,22Zm15.49-1.52a3,3,0,0,1,3,3,3,3,0,1,1-3-3ZM294.63,8.16a9,9,0,0,1,6.69,2.61,8.86,8.86,0,0,1,2.61,6.54,8.93,8.93,0,0,1-2.61,6.54,9.12,9.12,0,0,1-6.69,2.61,9.31,9.31,0,0,1-6.74-2.61,8.93,8.93,0,0,1-2.61-6.54,9,9,0,0,1,2.61-6.54A9.31,9.31,0,0,1,294.63,8.16Zm0,13.82a4.39,4.39,0,0,0,3.1-1.28,4.44,4.44,0,0,0,1.33-3.39,4.34,4.34,0,0,0-1.38-3.44,4.58,4.58,0,0,0-3-1.18,4.39,4.39,0,0,0-3.1,1.28,4.44,4.44,0,0,0-1.33,3.39,4.44,4.44,0,0,0,1.33,3.39A4.75,4.75,0,0,0,294.63,22Zm24-13.62-.54,4.77a9.69,9.69,0,0,0-1.67-.25,5.35,5.35,0,0,0-4.47,2.7V25.91h-4.87V8.7h4.67v2.66h.39c1.28-2.11,2.9-3.15,4.92-3.15A5.7,5.7,0,0,1,318.63,8.36ZM338,25.47a8,8,0,0,1-2.46,6,9.51,9.51,0,0,1-6.88,2.36,10.28,10.28,0,0,1-6.1-1.72A6.16,6.16,0,0,1,320,27.44h5c.25,1.62,1.48,2.41,3.69,2.41A4.43,4.43,0,0,0,332,28.67a4.74,4.74,0,0,0,1.13-3.34V23.7a7.4,7.4,0,0,1-5.31,2.21,7.64,7.64,0,0,1-5.9-2.56,8.78,8.78,0,0,1-2.31-6.24A8.84,8.84,0,0,1,322,10.82a8,8,0,0,1,6.1-2.61,6.83,6.83,0,0,1,2.85.64,6.72,6.72,0,0,1,2.41,1.72V8.7H338V25.47Zm-9.19-3.93a4.28,4.28,0,0,0,3-1.28,4.56,4.56,0,0,0,1.28-3.34,4.38,4.38,0,0,0-1.23-3.15,3.81,3.81,0,0,0-3-1.28,4.22,4.22,0,0,0-3.2,1.28,4.41,4.41,0,0,0-1.23,3.29,4.49,4.49,0,0,0,1.23,3.2A3.74,3.74,0,0,0,328.81,21.54Z"/></svg>